# xmcd
#
# Track frame offsets:
#   150
#   9188
#   23495
#   33369
#   46102
#   58985
#   74936
#   83159
#   94941
#   106452
#   116959
#   130072
#   142558
#   156649
#   169978
#   185020
#   196050
#   210145
#
# Disc length: 3012 seconds
#
# Revision: 0
# Processed by: cddbd v1.5.1PL2 Copyright (c) Steve Scherf et al.
# Submitted via: Click'N Design 3D 5.1
#
DISCID=f50bc212
DTITLE=Bluegrass Gospel (1) -  
DYEAR=2004
DGENRE=Country
TTITLE0=I'll Fly Away
TTITLE1=At The Crossroads
TTITLE2=Power In The Blood
TTITLE3=Softly And Tenderly
TTITLE4=What A Friend We Have in Jesus
TTITLE5=Don't Go
TTITLE6=Amazing Grace
TTITLE7=River Of Life
TTITLE8=When We All Get To Heaven
TTITLE9=When The Roll Is Called Up Yonder
TTITLE10=Wonderful Words Of Life
TTITLE11=To God Be The Glory
TTITLE12=Believe
TTITLE13=Jesus Loves Me
TTITLE14=When I Survey
TTITLE15=Count Your Blessings
TTITLE16=Man Of Constant Sorrow
TTITLE17=Just A Closer Walk With Thee
EXTD=
EXTT0=
EXTT1=
EXTT2=
EXTT3=
EXTT4=
EXTT5=
EXTT6=
EXTT7=
EXTT8=
EXTT9=
EXTT10=
EXTT11=
EXTT12=
EXTT13=
EXTT14=
EXTT15=
EXTT16=
EXTT17=
PLAYORDER=
